# xmcd
#
# Track frame offsets:
#	150
#	21840
#	37860
#	57427
#	75720
#	88937
#	100890
#	119992
#	146292
#	166882
#	190035
#
# Disc length: 2758 seconds
#
# Revision: 1
# Processed by: cddbd v1.5.1PL0 Copyright (c) Steve Scherf et al.
# Submitted via: CDex 1.50Beta5
#
DISCID=8e0ac40b
DTITLE=SHEENA and THE ROKKETS - ROCK THE ROCK
DYEAR=1900
DGENRE=
TTITLE0=THE JUNGLE OF LOVE
TTITLE1=ROCKY ROAD
TTITLE2=天国はあるけれど天国には誰もいない
TTITLE3=VACUUM TRUCK
TTITLE4=WOO MERRY X'MAS
TTITLE5=I WANNA BE LOVED
TTITLE6=うそつき人間
TTITLE7=I CAN'T KEEP FROM CRYIN' SOMETIMES
TTITLE8=TELL ME
TTITLE9=SEARCH DOG
TTITLE10=MAY BE
EXTD=
EXTT0=
EXTT1=
EXTT2=
EXTT3=
EXTT4=
EXTT5=
EXTT6=
EXTT7=
EXTT8=
EXTT9=
EXTT10=
PLAYORDER=
